<svg data-v-423bf9ae="" xmlns="http://www.w3.org/2000/svg" viewBox="0 0 301 90" class="iconLeft"><!----><!----><!----><g data-v-423bf9ae="" id="5e85c091-889a-4385-8942-c29b0fa6edb0" fill="black" transform="matrix(6.1412484328310715,0,0,6.1412484328310715,143.86063685252762,-13.126917353826236)"><path d="M4.58 14.35L4.58 13.65L3.15 13.65L3.15 5.28L4.58 5.28L4.58 4.58L0.88 4.58L0.88 5.28L2.31 5.28L2.31 13.65L0.88 13.65L0.88 14.35ZM7.56 14.35L7.56 9.31C7.56 8.25 8.47 7.73 9.45 7.73C10.63 7.73 11.24 8.43 11.24 9.88L11.24 14.35L12.04 14.35L12.04 9.32C12.04 8.26 12.92 7.73 13.92 7.73C15.12 7.73 15.72 8.44 15.72 9.88L15.72 14.35L16.52 14.35L16.52 9.74C16.52 7.99 15.67 7.01 14.14 7.01C12.87 7.01 12.15 7.69 11.89 8.53L11.84 8.53C11.49 7.49 10.65 7.01 9.63 7.01C8.46 7.01 7.90 7.62 7.60 8.32L7.56 8.32L7.56 7.18L6.76 7.18L6.76 14.35ZM19.95 14.35L19.95 10.05L22.95 10.05C24.64 10.05 25.56 8.99 25.56 7.31C25.56 5.64 24.64 4.58 22.95 4.58L19.11 4.58L19.11 14.35ZM19.95 5.32L22.95 5.32C24.07 5.32 24.67 6.02 24.67 6.97L24.67 7.64C24.67 8.61 24.07 9.31 22.95 9.31L19.95 9.31Z"></path></g><!----><g data-v-423bf9ae="" id="7bd4c163-77a3-4734-a642-474daa618ae9" transform="matrix(1.4357800300690933,0,0,1.4357800300690933,-6.8069391385816544,-26.12770883085176)" stroke="none" fill="black"><path d="M55.8 58.3s-1.7-.1-3.3-1.9c-1.6-1.8-1.4-3.2-1.4-3.2s7.1-10.3 14.6-17.3c1.4-1.4 3.1-2.7 4.8-4.1C57 17.3 34.7 17.7 33.8 19.6c-1.7 3.7 5.3 4.7 8.9 7 3.8 2.4 3.5 5.7-6.8 3.9-48.3-8.1-36.1 54.1 9.7 50.7 23.2-1.8 37-20.6 32.1-37.4-1.7 1.6-3.3 3-4.7 4.3-7.3 6.5-17.2 10.2-17.2 10.2zM24.4 43.4c-.7-3.1 2.5-6.3 7.1-7 4.6-.7 9 1.2 9.7 4.4.7 3.1-2.5 6.3-7.1 7-4.6.6-9-1.3-9.7-4.4zm18.1 26.7C32.7 71.2 26.8 64 26.8 64s2.2 1.1 6.5.3c4.8-.8 5.3-5.2 8-8.6s7.3-2.2 7.3-2.2-.8 1.7 1.9 4.9c2 2.4 4.4 2.6 4.4 2.6s-2.5 8-12.4 9.1zM89.2 19.5c-2.4.8-11.3 6.4-18.6 12.2 1.5 1.6 3 3.4 4.3 5.5 1.3 2.1 2.3 4.4 3 6.6 6.9-6.5 14.7-14.6 16.5-17.5 2.2-3.5-1.9-8-5.2-6.8z"></path></g><!----></svg>