<svg data-v-fde0c5aa="" xmlns="http://www.w3.org/2000/svg" viewBox="0 0 300 300" class="icon"><!----><defs data-v-fde0c5aa=""><!----></defs><rect data-v-fde0c5aa="" fill="#39DAA2" x="0" y="0" width="300px" height="300px" class="logo-background-square"></rect><!----><defs data-v-fde0c5aa=""><!----></defs><g data-v-fde0c5aa="" id="d850afb6-0b86-4a57-9dcb-d0948ce384b3" fill="#041814" stroke="none" transform="matrix(2.443598665589091,0,0,2.443598665589091,27.806820742366277,27.83767986324041)"><path d="M55.8 58.3s-1.7-.1-3.3-1.9c-1.6-1.8-1.4-3.2-1.4-3.2s7.1-10.3 14.6-17.3c1.4-1.4 3.1-2.7 4.8-4.1C57 17.3 34.7 17.7 33.8 19.6c-1.7 3.7 5.3 4.7 8.9 7 3.8 2.4 3.5 5.7-6.8 3.9-48.3-8.1-36.1 54.1 9.7 50.7 23.2-1.8 37-20.6 32.1-37.4-1.7 1.6-3.3 3-4.7 4.3-7.3 6.5-17.2 10.2-17.2 10.2zM24.4 43.4c-.7-3.1 2.5-6.3 7.1-7 4.6-.7 9 1.2 9.7 4.4.7 3.1-2.5 6.3-7.1 7-4.6.6-9-1.3-9.7-4.4zm18.1 26.7C32.7 71.2 26.8 64 26.8 64s2.2 1.1 6.5.3c4.8-.8 5.3-5.2 8-8.6s7.3-2.2 7.3-2.2-.8 1.7 1.9 4.9c2 2.4 4.4 2.6 4.4 2.6s-2.5 8-12.4 9.1zM89.2 19.5c-2.4.8-11.3 6.4-18.6 12.2 1.5 1.6 3 3.4 4.3 5.5 1.3 2.1 2.3 4.4 3 6.6 6.9-6.5 14.7-14.6 16.5-17.5 2.2-3.5-1.9-8-5.2-6.8z"></path></g><!----></svg>